Patient4_TMGait_0pt8_01_right_33_EMG.mot
version=1
nRows=23
nColumns=33
inDegrees=no
endheader
time	1LAddLong	2LGlutMax	3LGlutMed	4LIliopsoas	5LSemiMemb	6LBicFemLong	7LRecFem	8LVastMed	9LVastLat	10LGasMed	11LTibAnt	12lTibPost	13LPeroneusLong	14LSol	15LExtDigLong	16LFlexDigLong	17RAddLong	18RGlutMax	19RGlutMed	20RIliopsoas	21RSemiMemb	22RBicFemLong	23RRecFem	24RVastMed	25RVastLat	26RGasMed	27RTibAnt	28RTibPost	29RPeroneusLong	30RSol	31RExtDigLong	32RFlexDigLong
38.13	0.011749	0.028381	-0.074005	0.001526	0.022278	-0.048523	0.15762	0.014038	-0.077972	0.011902	-0.1059	-0.002136	0.13718	0.040588	0.055237	-0.001221	0.001526	-0.16449	-0.012817	0.032043	0.33554	0.051575	0.020905	-0.049744	0.000305	0.10651	-0.048065	-0.014801	-0.45609	-0.1384	-0.000305	-0.11078
38.131	0.008545	0.016479	-0.11108	0.007324	0.026703	0.010834	0.20676	0.010834	-0.067596	-0.007019	-0.023956	-0.006866	-0.090485	0.16159	0.036621	0.016785	0.03891	-0.10117	-0.055084	-0.045013	0.21408	-0.053864	0.045319	-0.05249	0.000763	0.067291	0.061188	-0.002594	-0.1709	-0.027924	0.000763	-0.087585
38.132	0.016327	0.06134	-0.10498	0.018005	0.035248	0.002594	0.14236	0.001678	-0.03891	-0.003052	0.074158	0.01358	-0.084229	0.15076	-0.036316	0.007782	0.03952	-0.093384	-0.081024	0.035553	-0.00885	-0.11841	-0.048218	-0.072327	-0.005646	0.032654	0.003204	-0.001373	0.12192	0.034027	0.004578	-0.068665
38.133	0.015564	0.052643	-0.12878	0.010376	0.024109	0.056458	0.15396	-0.008087	0.009918	-0.072479	0.13428	0.006256	-0.058441	0.11505	-0.052185	-0.009003	0.036621	-0.040894	-0.10513	0.19928	-0.11505	-0.086365	-0.077972	-0.14877	-0.022888	0.0737	-0.073547	-0.006866	0.095215	0.062866	-0.003815	-0.034485
38.134	0.007782	0.043182	-0.21469	0.002441	0.019989	0.067749	0.22888	0.006104	-0.001984	-0.023346	0.16571	-0.015106	0.59006	0.26733	0.33646	-0.005341	-0.016632	-0.076447	-0.17441	0.26443	-0.13077	-0.058899	-0.11932	-0.054169	-0.020294	0.089722	-0.00412	0.004883	0.13596	0.083313	-0.005341	-0.010986
38.135	0.012054	0.068817	-0.16281	-0.018463	0.015869	0.047302	0.2832	0.009003	0.00412	0.020447	-0.031433	0.006409	0.085449	0.14679	0.21149	-0.011139	-0.039368	-0.065918	-0.1442	0.28809	0.000763	-0.066528	-0.075073	-0.031281	0.001221	0.052795	-0.060272	0.002594	0.2121	-0.012817	-0.001831	0.007782
38.136	0.003967	0.072937	-0.16098	0.027161	0.009155	0.075684	0.37109	0.007172	-0.007324	0.034485	-0.15671	-0.002899	-0.45822	-0.067139	0.10742	-0.00412	-0.055542	-0.053558	-0.15793	0.17425	0.14511	-0.071869	-0.034637	0.008087	-0.010834	0.029755	-0.13275	-0.010681	0.17166	-0.048828	-0.000305	0.025787
38.137	-0.002594	0.083618	0.003815	0.015411	0.016632	0.085297	0.41382	0.008392	0.004883	0.074615	-0.092926	-0.009003	-0.06958	-0.095978	0.40604	-0.014954	-0.059204	-0.10208	-0.22201	0.051575	-0.005493	-0.096893	-0.02121	-0.006256	-0.001831	0.003815	0.085754	-0.006561	0.047607	-0.05661	0.000305	0.043488
38.138	-0.000458	0.050201	-0.10819	-0.005798	0.025024	0.075684	0.33859	0.011139	-0.014191	-0.009918	-0.006561	-0.00412	-0.026703	0.041046	0.06546	-0.009918	-0.051727	-0.061798	-0.20523	-0.059814	-0.20966	-0.084076	-0.012665	-0.04715	-0.00946	-0.016174	0.3064	0.006409	0.13992	-0.034485	-0.000763	0.057831
38.139	0.009613	0.04715	-0.052643	-0.043182	0.015717	-0.010681	0.20905	0.018616	-0.051727	-0.085754	-0.050049	-0.005188	0.25177	0.13062	-0.31891	-0.002899	-0.006256	-0.013123	-0.21698	-0.097198	-0.24841	-0.22003	0.057983	-0.1001	-0.015717	-0.024414	0.44922	-0.003815	-0.18066	-0.079956	-0.001831	0.062866
38.14	0.014496	0.004272	0.008392	-0.039825	0.017853	-0.009308	0.1535	0.033417	-0.010529	-0.027771	-0.037994	-0.006104	0.35065	-0.042877	-0.016022	-0.020752	0.02594	-0.021667	-0.27405	-0.078735	-0.33264	-0.23636	0.05661	-0.1207	0.00061	-0.046692	0.4863	-0.010071	-0.59525	-0.1741	-0.002441	0.057373
38.141	0.009308	0.0354	-0.007324	-0.003967	0.015259	-0.000763	0.22858	0.018463	0.077972	-0.027771	0.14603	-0.00412	-0.057831	0.1088	0.39322	-0.018463	0.031128	-0.069122	-0.32761	-0.081787	-0.42816	-0.15656	-0.043488	-0.13092	0.009918	-0.056305	0.004425	-0.007324	-0.40222	-0.19882	-0.002441	0.070038
38.142	0.000763	0.054626	0.026093	0.019379	0.011597	0.021057	0.31265	-0.001678	0.03006	-0.018158	0.31784	0.001984	-0.21973	0.10635	-0.18845	-0.000763	0.010681	-0.058594	-0.33081	-0.084229	-0.26184	-0.10269	-0.034485	-0.11871	0.003815	-0.046387	-0.1918	-0.005341	-0.44281	-0.21164	-0.00473	0.062256
38.143	0.009918	0.066833	0.008545	0.015564	0.011444	0.033875	0.34454	-0.014343	-0.058594	-0.009918	0.11414	0.002747	0.14282	0.17838	-0.41504	-0.00946	-0.014801	-0.019379	-0.32455	-0.070038	0.15671	-0.028992	-0.02533	-0.005035	0.012207	-0.056152	-0.050507	-0.006866	-0.40039	-0.24017	-0.002289	0.055237
38.144	-0.000916	0.05661	-0.080109	-0.009613	0.02182	0.009308	0.27969	-0.014648	-0.071106	-0.045013	-0.02533	0.001373	0.5397	0.17181	-0.50842	0.00061	-0.038605	-0.038452	-0.31891	-0.22568	0.20264	0.18723	-0.042419	0.047302	0.027008	-0.050812	0.28671	-0.004578	-0.44281	-0.16586	-0.000916	0.054474
38.145	0.004272	0.066071	-0.017548	-0.016632	0.022278	-0.024719	0.26413	-0.011444	-0.057068	-0.039215	-0.17364	-0.004425	0.1387	0.036926	-0.25955	-0.010681	-0.031891	-0.012665	-0.31769	-0.22919	0.063171	0.24567	-0.012817	0.063019	0.01709	-0.053558	0.22797	-0.002136	-0.46722	0.035858	-0.005798	0.050812
38.146	0.001068	0.067444	-0.059357	-0.007477	0.023956	0.012054	0.2536	-0.002899	-0.052338	-0.037231	-0.057373	-0.007629	-0.15686	-0.090332	-0.21286	0.001221	0	-0.057983	-0.33203	-0.20554	-0.021362	0.26047	-0.003662	-0.027924	0.012207	-0.035706	-0.1831	-0.008087	-0.17563	0.057983	0.000763	0.051727
38.147	0.009155	0.075226	-0.042419	0.00412	0.025177	-0.019073	0.17105	-0.004883	0.002441	-0.025177	0.020447	-0.00061	-0.11383	-0.087891	0.05188	0.016327	0.02243	-0.001526	-0.3685	-0.014038	-0.019073	0.22644	0.027161	0.017548	0.006104	0.000763	-0.30945	-0.007019	-0.007782	0.054474	0.000763	0.050964
38.148	0.009613	0.092163	-0.11215	0.01358	0.021362	-0.004578	0.24612	-0.006409	0.020752	-0.001831	-0.086212	-0.002289	-0.080109	-0.080414	0.13367	0.012054	0.00473	-0.014038	-0.40482	0.057373	-0.053558	0.14114	0.017395	0.00061	0.017395	0.034332	-0.13596	-0.008087	-0.16785	0.088654	0.001221	0.057983
38.149	0.005951	0.064087	-0.18829	-0.002441	0.036926	-0.005493	0.27741	-0.005341	-0.036011	-0.052032	-0.010071	-0.006561	-0.002441	-0.17395	-0.04425	0.016327	-0.02121	-0.019836	-0.51468	0.24292	-0.080566	0.010529	0.017548	-0.014038	0.032043	0.050049	-0.055542	-0.00824	0.11704	0.011292	-0.006409	0.063782
38.15	0.005188	0.056305	-0.20828	-0.013123	0.033722	0.002747	0.27466	-0.010986	-0.045471	-0.10407	0.1297	-0.003815	-0.16846	-0.25955	0.30609	-0.002594	-0.005493	-0.02121	-0.54138	0.26215	-0.088501	-0.058289	0.054321	-0.039368	0.028839	0.07843	-0.040741	-0.008545	0.76553	0.024261	-0.00412	0.079346
38.151	0.018616	0.077667	-0.31662	0.006866	0.026398	0.029907	0.24582	-0.009613	-0.042267	-0.17883	-0.025787	0.00061	-0.1709	-0.19913	0.79315	0.015564	0.015564	0.049438	-0.6282	0.097656	-0.08255	-0.094299	0.089569	-0.037079	0.033722	0.063629	-0.025482	-0.008698	0.81726	-0.033264	-0.005188	0.094147
38.152	0.005951	0.081787	-0.35996	0.01709	0.021515	0.066681	0.22247	0.001831	-0.050964	-0.2179	-0.27649	-0.005951	-0.24048	-0.097656	-0.40695	0.00351	0.012665	0.12711	-0.83328	0.041199	-0.03952	-0.064392	0.046234	-0.012665	0.060577	0.06134	-0.001831	-0.001068	0.61584	-0.029907	-0.001984	0.07782
